<?xml version="1.0" encoding="utf-8"?>
<!-- Generator: Adobe Illustrator 18.1.1, SVG Export Plug-In . SVG Version: 6.00 Build 0)  -->
<svg version="1.1" id="Layer_1" xmlns="http://www.w3.org/2000/svg" xmlns:xlink="http://www.w3.org/1999/xlink" x="0px" y="0px"
	 viewBox="0 0 732 1078.9" enable-background="new 0 0 732 1078.9" xml:space="preserve">
<path fill="#C69C6D" stroke="#FFFFFF" stroke-width="10" stroke-linecap="round" stroke-miterlimit="10" d="M668,352
	c0,135.7-135.7,263.2-182.6,370.3C403.6,908.9,387.6,1034,366,1034c-27.3,0-31.7-124.6-110-307C209.3,617.9,64,488.2,64,352
	C64,185.2,199.2,50,366,50S668,185.2,668,352z"/>
<polygon fill="#FFFFFF" points="318,410.9 415.1,409.9 367.6,511.1 "/>
<g>
	<path fill="#FFFFFF" d="M249.8,150.4c52.4,0,97.3,32,116.3,77.5c19-45.5,63.9-77.5,116.3-77.5c68.1,0,123.5,54,125.9,121.5
		c0.1-1.6,0.1-3.2,0.1-4.8c0-98-108.5-177.4-242.3-177.4s-242.3,79.4-242.3,177.4c0,1.6,0,3.2,0.1,4.8
		C126.3,204.4,181.7,150.4,249.8,150.4z"/>
</g>
<circle fill="none" stroke="#FFFFFF" stroke-width="10" stroke-miterlimit="10" cx="249.8" cy="276.4" r="85.9"/>
<circle fill="none" stroke="#FFFFFF" stroke-width="10" stroke-miterlimit="10" cx="482.4" cy="276.4" r="85.9"/>
</svg>
