<?xml version="1.0" encoding="utf-8"?>
<!-- Generator: Adobe Illustrator 18.1.1, SVG Export Plug-In . SVG Version: 6.00 Build 0)  -->
<svg version="1.1" id="Layer_1" xmlns="http://www.w3.org/2000/svg" xmlns:xlink="http://www.w3.org/1999/xlink" x="0px" y="0px"
	 viewBox="0 0 732 1078.9" enable-background="new 0 0 732 1078.9" xml:space="preserve">
<path fill="none" stroke="#C69C6D" stroke-width="10" stroke-linecap="round" stroke-miterlimit="10" d="M668,351.1
	c0,135.7-135.7,263.2-182.6,370.3C403.6,908,387.6,1033.1,366,1033.1c-27.3,0-31.7-124.6-110-307C209.3,617,64,487.3,64,351.1
	c0-166.8,135.2-302,302-302S668,184.3,668,351.1z"/>
<g>
	<path fill="#C69C6D" d="M249.8,149.6c52.4,0,97.3,32,116.3,77.5c19-45.5,63.9-77.5,116.3-77.5c68.1,0,123.5,54,125.9,121.5
		c0.1-1.6,0.1-3.2,0.1-4.8c0-98-108.5-177.4-242.3-177.4s-242.3,79.4-242.3,177.4c0,1.6,0,3.2,0.1,4.8
		C126.3,203.5,181.7,149.6,249.8,149.6z"/>
</g>
<circle fill="#FFFFFF" stroke="#A67C52" stroke-width="10" stroke-miterlimit="10" cx="249.8" cy="275.5" r="85.9"/>
<circle fill="#FFFFFF" stroke="#A67C52" stroke-width="10" stroke-miterlimit="10" cx="482.4" cy="275.5" r="85.9"/>
<polygon fill="#C69C6D" points="317,410 414.1,409.1 366.6,510.2 "/>
</svg>
