<?xml version="1.0" encoding="utf-8"?>
<!-- Generator: Adobe Illustrator 18.1.1, SVG Export Plug-In . SVG Version: 6.00 Build 0)  -->
<svg version="1.1" id="Layer_1" xmlns="http://www.w3.org/2000/svg" xmlns:xlink="http://www.w3.org/1999/xlink" x="60px" y="98px"
	 viewBox="0 0 604 984" enable-background="new 0 0 604 984" xml:space="preserve">
<g>
	<path fill="#FFFFFF" d="M302,979c-2.6,0-6.9-3.1-12.7-18.1c-5.3-13.6-10.6-33.9-17.4-59.6c-14-52.8-35.1-132.6-75.3-226.3
		c-17-39.6-46.5-81.5-77.7-125.7c-27.6-39.1-56.1-79.6-77.8-121.1C16.8,381.5,5,340.2,5,302c0-79.3,30.9-153.9,87-210S222.7,5,302,5
		s153.9,30.9,210,87s87,130.7,87,210c0,38.9-11.5,80.6-35.1,127.7c-21,41.9-48.6,82.4-75.2,121.6c-28.5,41.9-55.4,81.4-71.9,119
		c-42.1,96-67.1,176.9-83.7,230.5c-8,25.8-14.3,46.2-19.9,59.9C306,978.5,302.4,979,302,979z"/>
	<path fill="#C69C6D" d="M302,10c39.4,0,77.7,7.7,113.7,22.9c34.8,14.7,66,35.8,92.8,62.6c26.8,26.8,47.9,58,62.6,92.8
		c15.2,36,22.9,74.2,22.9,113.7c0,38.1-11.3,79.1-34.6,125.5c-20.8,41.6-48.3,82-74.9,121c-28.6,42.1-55.7,81.8-72.3,119.8
		c-42.2,96.2-67.3,177.4-83.9,231.1c-7.1,22.9-12.7,41-17.7,54.3c-4.6,12.3-7.6,17.4-9.2,19.5c-1.5-1.6-4.6-6.1-8.8-18.2
		c-4.7-13.3-9.6-31.7-15.8-55c-14-53-35.2-133-75.5-226.9c-17.2-40.1-46.8-82.1-78.2-126.6c-27.5-39-55.9-79.3-77.4-120.6
		C21.6,379.9,10,339.4,10,302c0-39.4,7.7-77.7,22.9-113.7c14.7-34.8,35.8-66,62.6-92.8c26.8-26.8,58-47.9,92.8-62.6
		C224.3,17.7,262.6,10,302,10 M302,0C135.2,0,0,135.2,0,302c0,136.2,145.3,265.9,192,375c78.2,182.4,82.6,307,110,307
		c21.6,0,37.6-125.1,119.4-311.7C468.3,565.2,604,437.7,604,302C604,135.2,468.8,0,302,0L302,0z"/>
</g>
<g>
	<path fill="#C69C6D" d="M185.8,100.4c52.4,0,97.3,32,116.3,77.5c19-45.5,63.9-77.5,116.3-77.5c68.1,0,123.5,54,125.9,121.5
		c0.1-1.6,0.1-3.2,0.1-4.8c0-98-108.5-177.4-242.3-177.4S59.8,119.2,59.8,217.1c0,1.6,0,3.2,0.1,4.8
		C62.3,154.4,117.7,100.4,185.8,100.4z"/>
</g>
<circle fill="#FFFFFF" stroke="#A67C52" stroke-width="10" stroke-miterlimit="10" cx="185.8" cy="226.4" r="85.9"/>
<circle fill="#FFFFFF" stroke="#A67C52" stroke-width="10" stroke-miterlimit="10" cx="418.4" cy="226.4" r="85.9"/>
<polygon fill="#C69C6D" points="253,360.9 350.1,359.9 302.6,461.1 "/>
</svg>
