<?xml version="1.0" encoding="utf-8"?>
<!-- Generator: Adobe Illustrator 18.1.1, SVG Export Plug-In . SVG Version: 6.00 Build 0)  -->
<svg version="1.1" id="Layer_1" xmlns="http://www.w3.org/2000/svg" xmlns:xlink="http://www.w3.org/1999/xlink" x="0px" y="0px"
	 viewBox="0 0 663.3 442.2" enable-background="new 0 0 663.3 442.2" xml:space="preserve">
<g id="_x31_m41eO_1_">
	<g>
		<path fill="#3A58A7" d="M184.7,426.6c6.3-4.3,13-8,18.8-12.9c12.4-10.4,24.1-21.4,36.3-32c18.5-16.1,39.8-24.7,64.7-24.6
			c60.6,0.3,121.1,0.1,181.7,0.1c0.5,0,1,0,2.3,0.1c-4.4,2.5-8.2,4.5-11.9,6.8c-15.2,9.6-28.8,21.3-42.1,33.4
			c-14.1,12.8-29.3,23.6-48.6,27c-4.5,0.8-9,1.4-13.5,2.2C309.9,426.6,247.3,426.6,184.7,426.6z"/>
		<path fill="#ED1C24" d="M399.3,283.5c-32.7,0-65,0-97.9,0c2-2.8,3.7-5.1,5.2-7.5c5.3-8.2,6.9-17.5,6.9-27
			c0.2-59.9,0.1-119.9,0.2-179.8c0-0.6-0.1-1.2-0.2-2.3c-4.8,0-9.5-0.1-14.1,0c-24.1,0.8-48,2.9-71.3,9.2c-11.2,3-22,7.1-32.1,14.2
			c0-21,0-41.5,0-62.1c102.9,0,205.5,0,308.4,0c0,20.6,0,40.9,0,61.4c-5.9-2.8-11.5-5.9-17.4-8.4c-17.2-7-35.3-10.5-53.7-12.5
			c-13.9-1.6-27.9-2.1-41.8-3.2c-3.3-0.3-4.3,0.8-4.3,4.2c0.1,57.5,0,115,0.1,172.6c0,10.3,0,20.7,5,30.2
			C394.2,276.1,396.7,279.5,399.3,283.5z"/>
	</g>
</g>
</svg>
