<?xml version="1.0" encoding="utf-8"?>
<!-- Generator: Adobe Illustrator 18.1.1, SVG Export Plug-In . SVG Version: 6.00 Build 0)  -->
<!DOCTYPE svg PUBLIC "-//W3C//DTD SVG 1.1//EN" "http://www.w3.org/Graphics/SVG/1.1/DTD/svg11.dtd">
<svg version="1.1" id="Layer_1" xmlns="http://www.w3.org/2000/svg" xmlns:xlink="http://www.w3.org/1999/xlink" x="0px" y="0px"
	 viewBox="0 0 500 500" enable-background="new 0 0 500 500" xml:space="preserve">
<g>
	<path fill="#4D4D4D" d="M261.9,275.2c0.1-0.4,0.3-0.7,0.5-1c32.5-51.8,66.3-109.8,115.9-146.4c32.1-23.6,48.1-30.3,55.2-32.8
		c3-1.1,6.4-0.2,8.5,2.2l2.4,2.7c3.4,3.9,2.2,10-2.4,12.3c-27,13.2-102.8,58.8-147.7,135.5C242.3,336.2,259.5,281.2,261.9,275.2z"/>
	<path fill="#FBB03B" d="M63,241.7c1.9-10.6,10.7-18.9,15.5-23.5c5.7-5.5,10.9-10.4,17.7-10.3c8.4,0.1,8.9,7.5,18.3,9.2
		c6.5,1.1,13.7-1.9,28-8c3.5-1.5,7.4-3.3,13.2-4c4.3-0.5,8-0.2,10.9,0c9.1,0.7,10.5,2.5,14.3,1.7c5.4-1.2,6.8-5.6,11.4-10.3
		c8.4-8.4,16.6-6.6,28.6-11.4c18.2-7.3,15.9-20.5,26.3-21.2c14.2-0.9,27.6,20.8,32,28c4,6.5,3.4,13,6.9,13.7
		c4.6,0.9,6.1-13.3,13.7-14.9c7.9-1.6,10.7,12.2,27.5,17.7c7.1,2.4,11.3,1.5,14.9,5.7c4.2,5,1.2,9.6,5.1,14.3
		c3.2,3.9,7.1,3,19.5,5.7c12.1,2.7,18.2,4,21.7,8c7.1,8.1,2.2,23.1,1.7,24.6c-6.3,18.6-39.6,27.5-137.3,33.8
		c-114.6,7.3-160.8,26.1-182,5.1C65.4,300.3,59.9,258.8,63,241.7z"/>
	<path fill="#FCDE54" d="M94.5,241.7c1.8-10.6,9.6-18.9,13.9-23.5c5.2-5.5,9.8-10.4,16-10.3c7.5,0.1,8,7.5,16.5,9.2
		c5.9,1.1,12.3-1.9,25.2-8c3.1-1.5,6.6-3.3,11.9-4c3.9-0.5,7.2-0.2,9.8,0c8.2,0.7,9.4,2.5,12.9,1.7c4.9-1.2,6.1-5.6,10.3-10.3
		c7.6-8.4,15-6.6,25.8-11.4c16.4-7.3,14.3-20.5,23.7-21.2c12.8-0.9,24.8,20.8,28.9,28c3.6,6.5,3.1,13,6.2,13.7
		c4.2,0.9,5.5-13.3,12.4-14.9c7.1-1.6,9.6,12.2,24.7,17.7c6.4,2.4,10.2,1.5,13.4,5.7c3.8,5,1.1,9.6,4.6,14.3c2.9,3.9,6.4,3,17.5,5.7
		c10.9,2.7,16.4,4,19.6,8c6.4,8.1,2,23.1,1.5,24.6c-5.7,18.6-35.7,27.5-123.7,33.8c-103.2,7.3-144.8,26.1-163.9,5.1
		C96.7,300.3,91.6,258.8,94.5,241.7z"/>
	<path fill="#E6E6E6" stroke="#E6E6E6" stroke-width="8" stroke-linecap="round" stroke-miterlimit="10" d="M53,256.1
		c0,0.8,0,1.9,0,3c0,85.9,78.2,155.4,174.6,155.4S402.2,345,402.2,259.1c0-1.1,0-2.2,0-3c0,0-67.3-8.4-176.7-8.4S53,256.1,53,256.1z
		"/>
	<path fill="#B3B3B3" stroke="#B3B3B3" stroke-width="8" stroke-linecap="round" stroke-miterlimit="10" d="M105.5,251.4
		c-34.1,2.3-52.5,4.7-52.5,4.7c0,0.8,0,1.9,0,3c0,85.9,78.2,155.4,174.6,155.4c0.2,0,0.4,0,0.6,0
		C159.1,392.7,108.4,328.4,105.5,251.4z"/>
</g>
</svg>
