<?xml version="1.0" encoding="utf-8"?>
<!-- Generator: Adobe Illustrator 18.1.1, SVG Export Plug-In . SVG Version: 6.00 Build 0)  -->
<svg version="1.1" id="Layer_1" xmlns="http://www.w3.org/2000/svg" xmlns:xlink="http://www.w3.org/1999/xlink" x="0px" y="0px"
	 viewBox="0 0 500 500" enable-background="new 0 0 500 500" xml:space="preserve">
<path fill="#E6E6E6" d="M244.3,29c0,0-96,0-106.7,4c-10.7,4-24,10.7-24,21.3s-5.3,73.3-5.3,82.7s-2.7,13.3,0,20.7
	c2.7,7.3-1.7,14.7-1.2,22c0.5,7.3-4.1,66-3.5,92c0.7,26,4,76.7,4,94c0,17.3-1.3,62.7-1.3,70.7s0.7,34.7,38,34.7s185.3,0.7,202.7,0
	s41.3,2,41.3-28.7s7.3-98,8-130.7c0.7-32.7-3.3-122.7-4-151.3c-0.7-28.7-1.4-57-2-90.3c-0.5-25-10.8-40-35.3-41
	C311,27.2,271,28.8,244.3,29z"/>
<path fill="#F2F2F2" d="M118,203.8c0,0,1.9-13.4-0.2-24.1c-2.1-10.7,5.9-36.7,5.9-42.7s1.3-34,0-42c-1.3-8,7.3-30.7,7.3-33.3
	S148.3,49,154.3,49s11.3-12.7,20-12.7c8.7,0,43.3,2.7,47.3,3.3c4,0.7,30-0.7,38-0.7c8,0,12,8.7,27.3,8.7s32.7-2.7,40.7-2.7
	S347,48.3,351,55s20,4,20.7,11.3c0.7,7.3-1.3,40,0,42.7c1.3,2.7,0.1,39.3,0.1,39.3l-6.8,34l15,21.2L118,203.8z"/>
<path fill="#0071BC" stroke="#0071BC" stroke-miterlimit="10" d="M106.2,203.5c-1.2,21-3,51.6-2.6,68.4c0.7,26,4,76.5,4,93.9
	s-1.3,62.6-1.3,70.6s0.7,34.6,38,34.6c37.3,0,185.3,0.7,202.7,0c17.3-0.7,41.3,2,41.3-28.7c0-30.7,7.3-97.8,8-130.4
	c0.5-22.2-1.2-71.4-2.6-108.4H106.2z"/>
<path fill="#239DE2" d="M118,203.8c0,0,10.2,20.4,10.2,31.4s2,41.9,0,51.9c-2,10-9.1,57-10.2,68c-1,11,1.9,44,5.5,52
	c3.6,8,5.5,37,5.5,37s4.8,19,30.4,16s33.7-9,45.9-9s47.3,9.8,47.3,9.8s43.1-7.8,47.1-7.8c4.1,0,21.3,0,33.5,0
	c12.2,0,21.3-13.8,21.3-22.8s14.2-34.1,15.2-41.1c1-7-2-37.7,0-56.9c2-19.2,1.4-40.2,0.2-46.2s3.5-28,1.1-40s8.8-42.5,8.8-42.5
	L118,203.8z"/>
<path fill="#2E3192" d="M276,92.3h-49.2c-4.2,0-8.4,0.5-12.5,1.6L150,110.5v0.9V222v0.9l62.1,16.4c4.2,1.1,8.5,1.7,12.9,1.7h49.2
	c4.2,0,8.4-0.5,12.5-1.6l64.3-16.5V222V111.4v-0.9L288.9,94C284.6,92.9,280.3,92.3,276,92.3z"/>
<path fill="#2E3192" stroke="#FFFFFF" stroke-width="6" stroke-miterlimit="10" d="M273.8,100.1H229c-3.8,0-7.7,0.5-11.4,1.4
	l-58.7,14.8v0.8v98.7v0.8l56.7,14.7c3.9,1,7.8,1.5,11.7,1.5h44.9c3.8,0,7.7-0.5,11.4-1.4l58.7-14.8v-0.8v-98.7v-0.8l-56.7-14.7
	C281.7,100.6,277.8,100.1,273.8,100.1z"/>
</svg>
