<?xml version="1.0" encoding="utf-8"?>
<!-- Generator: Adobe Illustrator 18.1.1, SVG Export Plug-In . SVG Version: 6.00 Build 0)  -->
<!DOCTYPE svg PUBLIC "-//W3C//DTD SVG 1.1//EN" "http://www.w3.org/Graphics/SVG/1.1/DTD/svg11.dtd">
<svg version="1.1" id="Layer_1" xmlns="http://www.w3.org/2000/svg" xmlns:xlink="http://www.w3.org/1999/xlink" x="0px" y="0px"
	 viewBox="0 0 500 500" enable-background="new 0 0 500 500" xml:space="preserve">
<g>
	<path fill="#FBB03B" d="M333.1,56.4c0,0,21.1,12.4,42.3,9.7l11.5-1.5c6-0.8,11.4,3.7,11.7,9.8c0.3,6.6-0.9,15-7.4,21.5
		c-12.6,12.6-24,27.3-32.5,27.8C350.2,124.3,333.1,56.4,333.1,56.4z"/>
	<path fill="#FBB03B" d="M329.3,57.8c0,0-39.3,11.2-40.3,34.5s4.8,23.3,4.8,23.3s-28.7,4.3-35.6,26.8c-7,22.5-0.3,31.5-0.3,31.5
		s-31.6,9-37.1,29.2s1.5,28.6,1.5,28.6s-32.4,2.8-38.1,38.2c-2.5,15.6-20.8,31.6-20.8,31.6s-20.4,10.3-28.4,32.8
		c-13.6,38.3-14.6,37.9-14.6,37.9s32.1-1.4,48.5,8.7s16.5,19.1,16.5,19.1l183-297.1L329.3,57.8z"/>
	<path fill="#DCB11B" d="M290.6,246.2c0,0,21.1-3.8,29.1-16.9s9.6-23.5,6.5-40.9c-4.5-25.1-19.6-52.6-24.7-66.8s-7.7-31.7,2.2-47.1
		c7.5-11.7,25.7-16.7,25.7-16.7s-18-1.8-29.5,11.1c-16.2,18-13.8,28.9-13.1,38.3s7.7,36.4,6.9,48.2c-0.7,11.7-12,51.2-15.3,54
		C274.9,212.2,290.6,246.2,290.6,246.2z"/>
	<path fill="#DCB11B" d="M255,304c0,0,21.1-3.8,29.1-16.9c8-13.1,9.6-23.5,6.5-40.9c-4.5-25.1-19.6-52.6-24.7-66.8
		c-5.1-14.2-7.7-31.7,2.2-47.1c7.5-11.7,25.7-16.7,25.7-16.7s-18-1.8-29.5,11.1c-16.2,18-13.8,28.9-13.1,38.3s7.7,36.4,6.9,48.2
		c-0.7,11.7-12,51.2-15.3,54C239.3,270,255,304,255,304z"/>
	<path fill="#DCB11B" d="M219,362.3c0,0,21.1-3.8,29.1-16.9c8-13.1,9.6-23.5,6.5-40.9c-4.5-25.1-19.6-52.6-24.7-66.8
		c-5.1-14.2-7.7-31.7,2.2-47.1c7.5-11.7,25.7-16.7,25.7-16.7s-18-1.8-29.5,11.1c-16.2,18-13.8,28.9-13.1,38.3
		c0.7,9.4,7.7,36.4,6.9,48.2c-0.7,11.7-12,51.2-15.3,54C203.4,328.3,219,362.3,219,362.3z"/>
	<path fill="#DCB11B" d="M183.5,420.1c0,0,21.1-3.8,29.1-16.9c8-13.1,9.6-23.5,6.5-40.9c-4.5-25.1-19.6-52.6-24.7-66.8
		s-7.7-31.7,2.2-47.1c7.5-11.7,25.7-16.7,25.7-16.7s-18-1.8-29.5,11.1c-16.2,18-13.8,28.9-13.1,38.3c0.7,9.4,7.7,36.4,6.9,48.2
		c-0.7,11.7-12,51.2-15.3,54S183.5,420.1,183.5,420.1z"/>
	<path fill="#DCB11B" d="M360.6,132.4c-4.5-25.1-19.6-52.6-24.7-66.8c-2.7-7.5-1.2-29.2-0.7-35.6c0.1-1.3-0.8-2.4-2.1-2.5
		c-3.5-0.3-7.5,3.1-10.2,7.2c-0.2,0.2-0.2,0.5-0.3,0.8c-2.2,5.7-1.8,11.1-1.4,15.7c0.7,9.4,7.7,36.4,6.9,48.2s-12,51.2-15.3,54
		c-2.9,2.4,8.4,28.2,11.5,35.1c0.5,1,1.6,1.6,2.7,1.3c5.3-1.3,20.6-5.8,27.2-16.5C362.2,160.2,363.8,149.8,360.6,132.4z"/>
</g>
<g>
	<path fill="#FBB03B" d="M211.8,75.8c0,0,23.8-5.7,37.2-22.3l7.3-9c3.8-4.7,10.8-5.2,15.2-1c4.8,4.6,9.8,11.5,9.6,20.6
		c-0.4,17.8,1.7,36.3-4.1,42.6S211.8,75.8,211.8,75.8z"/>
	<path fill="#FBB03B" d="M209.9,79.5c0,0-20.6,35.3-5.1,52.8c15.5,17.5,19.6,13.4,19.6,13.4s-17.7,23-7,44.1
		c10.6,21.1,21.7,22.9,21.7,22.9s-16.5,28.4-6.5,46.8c10,18.4,20.9,19.5,20.9,19.5s-21.4,24.5-1,54c9,13,6.9,37.2,6.9,37.2
		s-7.6,21.6,2.3,43.3c16.8,37,15.8,37.4,15.8,37.4s22.2-23.3,40.9-27.4c18.8-4.1,25.1,2.3,25.1,2.3L269.2,85L209.9,79.5z"/>
	<path fill="#A67C52" d="M312.7,242.1c0,0,12.5-17.4,9.2-32.4s-9.4-23.6-23.7-33.9c-20.7-14.9-50.7-24.3-64.2-31
		c-13.5-6.7-27.5-17.4-31.1-35.4c-2.7-13.6,7-29.9,7-29.9s-14.2,11.2-13.6,28.5c0.9,24.2,10.1,30.4,17.2,36.6s30.8,20.9,38.4,29.9
		s26.9,45.2,26.4,49.5C277.9,228.4,312.7,242.1,312.7,242.1z"/>
	<path fill="#A67C52" d="M327.2,308.4c0,0,12.5-17.4,9.2-32.4s-9.4-23.6-23.7-33.9c-20.7-14.9-50.7-24.3-64.2-31
		s-27.5-17.4-31.1-35.4c-2.7-13.6,7-29.9,7-29.9s-14.2,11.2-13.6,28.5c0.9,24.2,10.1,30.4,17.2,36.6c7,6.3,30.8,20.9,38.4,29.9
		c7.6,9,26.9,45.2,26.4,49.5C292.3,294.7,327.2,308.4,327.2,308.4z"/>
	<path fill="#A67C52" d="M341.8,375.3c0,0,12.5-17.4,9.2-32.4s-9.4-23.6-23.7-33.9c-20.7-14.9-50.7-24.3-64.2-31
		c-13.5-6.7-27.5-17.4-31.1-35.4c-2.7-13.6,7-29.9,7-29.9s-14.2,11.2-13.6,28.5c0.9,24.2,10.1,30.4,17.2,36.6
		c7,6.3,30.8,20.9,38.4,29.9c7.6,9,26.9,45.2,26.4,49.5C306.9,361.7,341.8,375.3,341.8,375.3z"/>
	<path fill="#A67C52" d="M356.3,441.6c0,0,12.5-17.4,9.2-32.4s-9.4-23.6-23.7-33.9c-20.7-14.9-50.7-24.3-64.2-31
		s-27.5-17.4-31.1-35.4c-2.7-13.6,7-29.9,7-29.9s-14.2,11.2-13.6,28.5c0.9,24.2,10.1,30.4,17.2,36.6s30.8,20.9,38.4,29.9
		s26.9,45.2,26.4,49.5C321.4,428,356.3,441.6,356.3,441.6z"/>
	<path fill="#A67C52" d="M284.3,111.5c-20.7-14.9-50.7-24.3-64.2-31c-7.2-3.5-21.2-20.2-25.2-25.2c-0.8-1-2.2-1.2-3.2-0.4
		c-2.7,2.3-3.3,7.5-2.3,12.3c0.1,0.3,0.2,0.5,0.3,0.8c2.3,5.6,6.4,9.2,9.9,12.3c7,6.3,30.8,20.9,38.4,29.9s26.9,45.2,26.4,49.5
		c-0.4,3.8,25.6,14.5,32.6,17.3c1,0.4,2.2,0,2.8-0.9c3-4.6,10.8-18.5,8.2-30.8C304.7,130.4,298.6,121.8,284.3,111.5z"/>
</g>
</svg>
