<?xml version="1.0" encoding="utf-8"?>
<!-- Generator: Adobe Illustrator 18.1.1, SVG Export Plug-In . SVG Version: 6.00 Build 0)  -->
<!DOCTYPE svg PUBLIC "-//W3C//DTD SVG 1.1//EN" "http://www.w3.org/Graphics/SVG/1.1/DTD/svg11.dtd">
<svg version="1.1" id="Layer_1" xmlns="http://www.w3.org/2000/svg" xmlns:xlink="http://www.w3.org/1999/xlink" x="0px" y="0px"
	 viewBox="0 0 500 500" enable-background="new 0 0 500 500" xml:space="preserve">
<g>
	<path fill="#99111C" d="M351,117.5V99H149v18.5c-19,3-34,19.6-34,39.5v231.7c0,22,18.2,40.3,40.2,40.3h190
		c22,0,39.8-18.3,39.8-40.3V157C385,137.1,370,120.5,351,117.5z"/>
	<path fill="#BC1328" d="M351,117.5V99h-64v330h58.2c22,0,39.8-18.3,39.8-40.3V157C385,137.1,370,120.5,351,117.5z"/>
	<path fill="#FBB03B" d="M348.9,109.6H151.4c-8.4,0-15.3-6.9-15.3-15.3v-8.6c0-8.4,6.9-15.3,15.3-15.3h197.5
		c8.4,0,15.3,6.9,15.3,15.3v8.6C364.2,102.7,357.3,109.6,348.9,109.6z"/>
	<rect x="134.5" y="183" fill="#FFFFDA" width="231.4" height="157"/>
</g>
</svg>
