<?xml version="1.0" encoding="utf-8"?>
<!-- Generator: Adobe Illustrator 18.1.1, SVG Export Plug-In . SVG Version: 6.00 Build 0)  -->
<!DOCTYPE svg PUBLIC "-//W3C//DTD SVG 1.1//EN" "http://www.w3.org/Graphics/SVG/1.1/DTD/svg11.dtd">
<svg version="1.1" id="Layer_1" xmlns="http://www.w3.org/2000/svg" xmlns:xlink="http://www.w3.org/1999/xlink" x="0px" y="0px"
	 viewBox="0 0 500 500" enable-background="new 0 0 500 500" xml:space="preserve">
<g>
	<path fill="#B1272D" d="M56,299.3c0-95,78.7-172,175.7-172s231.4,108.8,231.4,203.8S328.8,430,231.7,430S56,394.3,56,299.3z"/>
	<path fill="#B1272D" stroke="#FFFFFF" stroke-width="10" stroke-miterlimit="10" d="M73.2,297.6c0-86.9,72-157.4,160.8-157.4
		s211.8,99.6,211.8,186.5s-123,90.5-211.8,90.5S73.2,384.5,73.2,297.6z"/>
	<path fill="#8E1A23" stroke="#FFFFFF" stroke-width="10" stroke-miterlimit="10" d="M219.6,314c0,18.2-19.9,34.9-47.8,32.9
		c-18.1-1.3-32.9-14.7-32.9-32.9c0-18.2,14.7-32.9,32.9-32.9C194.2,281.2,219.6,295.9,219.6,314z"/>
</g>
</svg>
