<?xml version="1.0" encoding="utf-8"?>
<!-- Generator: Adobe Illustrator 18.1.1, SVG Export Plug-In . SVG Version: 6.00 Build 0)  -->
<!DOCTYPE svg PUBLIC "-//W3C//DTD SVG 1.1//EN" "http://www.w3.org/Graphics/SVG/1.1/DTD/svg11.dtd">
<svg version="1.1" id="Layer_1" xmlns="http://www.w3.org/2000/svg" xmlns:xlink="http://www.w3.org/1999/xlink" x="0px" y="0px"
	 viewBox="0 0 500 500" enable-background="new 0 0 500 500" xml:space="preserve">
<g>
	<path fill="#1D93E2" d="M396.2,41.7l-294.7,0c0,0,2.6,9.1,0,15s12.7,51.5,14,62.6s-1.4,115.4-1.4,122.8s7.2,124.1,7.2,126.7
		s-8.5,24.8-8.5,31.3c0,6.5-5.1,11.8-7.1,16.3s-4.7,27.1-4.7,27.1v15l298,0.3v-15.3c0,0,2.6-25.2-2.3-34.3
		c-4.9-9.1-13.8-25.5-13.8-31.3s6.6-32,4-36.6c-2.6-4.6-6.5-7.8-4.5-16.3c2-8.5,5.9-48.3,4.6-58.1c-1.3-9.8-7.2-73.8-5.2-82.9
		c2-9.1,11.1-71.8,11.8-79c0.7-7.2-2-17-0.6-24.8c1.3-7.8,6.3-23.5,6.3-23.5L396.2,41.7z"/>
	<rect x="101.5" y="41.7" fill="#0071BC" width="297.8" height="15"/>
	<rect x="101" y="443.7" fill="#0071BC" width="297.8" height="15"/>
	<path fill="#489DE2" d="M125.2,88.7c0,0-12.3,32.2-9.4,34.7c2.9,2.5,9.4,39.1,9.4,39.1s12.4,32.7,11.1,50.3s3.9,41.8,6.5,48.3
		c2.6,6.5,4.6,7.8,3.9,17c-0.7,9.1-4.6,26.1-5.2,29.4c-0.7,3.3-5.2,20.2-5.9,23.5c-0.7,3.3-5.2,20.2-7.2,25.5
		c-2,5.2-5.9,24.8-3.3,29.4s20.5,11.1,21.7,21.6s27.3,18.3,40.4,17.6c13.1-0.7,38.5-12.4,45.1-17.6s32-3.3,39.2,0
		c7.2,3.3,26.8,10.4,36.6,7.8s47-5.9,50.9-12.4c3.9-6.5,16.3-15.7,14.4-31.3s0-14.4-5.2-21.6s-11.1-30-6.5-42.5
		c4.6-12.4,10.2-20.2,12-30.7c1.8-10.4-16.5-28.7-20.5-46.4c-3.9-17.6,7.8-47.7,10.4-52.9s19.6-19.6,20.9-31.3
		c1.3-11.8-11.8-20.9-17.6-33.3c-5.9-12.4-5.9-32-3.3-39.8s-5.2-9.1-11.1-9.8s-56.8,5.9-56.8,5.9s-30.4,17.6-45.2,17
		s-50.1-7.8-50.1-7.8l-35.9-7.8L125.2,88.7z"/>
	<circle fill="#FCDE54" cx="250.2" cy="196.8" r="68.2"/>
	<path fill="#99111C" d="M182,161.8c0,0-15,21.6-5.2,51.6c9.8,30,18.3,41.1,18.3,41.1s15-20.2,31.3-28.1s52.2-2,70.5,2
		c18.3,3.9,36.6-15.7,36.6-15.7s2.6-20.2-8.5-46.4c-11.1-26.1-15.7-17-15.7-17s-0.7,7.8-22.9,13.1c-22.2,5.2-49-5.2-74.5-6.5
		S182,161.8,182,161.8z"/>
</g>
</svg>
