<?xml version="1.0" encoding="utf-8"?>
<!-- Generator: Adobe Illustrator 18.1.1, SVG Export Plug-In . SVG Version: 6.00 Build 0)  -->
<!DOCTYPE svg PUBLIC "-//W3C//DTD SVG 1.1//EN" "http://www.w3.org/Graphics/SVG/1.1/DTD/svg11.dtd">
<svg version="1.1" id="Layer_1" xmlns="http://www.w3.org/2000/svg" xmlns:xlink="http://www.w3.org/1999/xlink" x="0px" y="0px"
	 viewBox="0 0 500 500" enable-background="new 0 0 500 500" xml:space="preserve">
<g>
	<path fill="#999999" d="M396.5,67h-249c-4.1,0-7.5-3.4-7.5-7.5v0c0-4.1,7.3-16.2,132-16.2s132,12,132,16.2v0
		C404,63.6,400.6,67,396.5,67z"/>
	<path fill="#999999" d="M147,433.6h249c4.1,0,7.5,3.4,7.5,7.5v0c0,4.1-7.3,16.2-132,16.2s-132-12-132-16.2v0
		C139.5,437,142.9,433.6,147,433.6z"/>
	<path fill="#29ABE2" d="M270,50c-101,0-125,10-125,10v3v375v3c0,0,27,10,128,10s125-10,125-10v-3V63v-3C398,60,371,50,270,50z"/>
	<path fill="#0071BC" d="M244.6,50.2C164.9,51.7,145,60,145,60v3v375v3c0,0,27,10,128,10c9.7,0,18.6-0.1,26.9-0.3L244.6,50.2z"/>
	<path stroke="#FBB03B" stroke-width="7" stroke-miterlimit="10" d="M357.2,183.5h-13.2l2.8-31.6c0.4-4.3-2.3-8.8-5.9-8.8
		c0,0-20.6-4.9-69.5-4.9s-69.5,4.4-69.5,4.4c-3.5,0-6.3,5.1-5.9,9.4l2.8,31.5h-13.2c-4.4,0-7.7,2.4-7.2,6.8l16.6,143.4
		c0.4,3.7,3.5,6.1,7.2,6.1c0,0,10.8,2.6,66.9,2.6s71.5-2.8,71.5-2.8c3.7,0,6.8-2.8,7.2-6.5l16.6-142.7
		C365,185.9,361.6,183.5,357.2,183.5z"/>
</g>
</svg>
